<svg xmlns="http://www.w3.org/2000/svg" width="421.058" height="391.844" viewBox="0 0 421.058 391.844">
  <g id="Component_22_1" data-name="Component 22 – 1" transform="translate(1.5 1.296)">
    <path id="Path_495" data-name="Path 495" d="M1172.507,8473.5l-104.638,20.865-73.807,94.05V8701l74.119,65.4,104.949-20.242,74.43-94.983V8538.434Z" transform="translate(-829.502 -8377.459)" fill="none" stroke="#694bf5" stroke-width="3"/>
    <path id="Path_496" data-name="Path 496" d="M1172.507,8473.5l-104.638,20.865-73.807,94.05V8701l73.418,65.135,105.65-19.979,74.43-94.983V8538.434Z" transform="translate(-994.061 -8473.171)" fill="none" stroke="#694bf5" stroke-width="3"/>
    <path id="Path_497" data-name="Path 497" d="M1082.754,8442.6l164.589,95.886" transform="translate(-829.502 -8377.459)" fill="none" stroke="#694bf5" stroke-width="3"/>
    <path id="Path_498" data-name="Path 498" d="M1082,8555.692l164.938,95.545" transform="translate(-829.502 -8377.459)" fill="none" stroke="#694bf5" stroke-width="3"/>
    <path id="Path_499" data-name="Path 499" d="M1008.279,8650.226l164.976,95.747" transform="translate(-829.502 -8377.459)" fill="none" stroke="#694bf5" stroke-width="3"/>
    <path id="Path_500" data-name="Path 500" d="M903.139,8670.683l164.47,95.189" transform="translate(-829.502 -8377.459)" fill="none" stroke="#694bf5" stroke-width="3"/>
    <path id="Path_501" data-name="Path 501" d="M829.5,8605.35l164.425,95.787" transform="translate(-829.502 -8377.459)" fill="none" stroke="#694bf5" stroke-width="3"/>
    <path id="Path_502" data-name="Path 502" d="M829.5,8492.983l164.162,94.472" transform="translate(-829.502 -8377.459)" fill="none" stroke="#694bf5" stroke-width="3"/>
    <path id="Path_503" data-name="Path 503" d="M903.4,8399.038l164.893,95.375" transform="translate(-829.502 -8377.459)" fill="none" stroke="#694bf5" stroke-width="3"/>
    <path id="Path_504" data-name="Path 504" d="M1172.344,8472.983v.377l-164.47-95.9" transform="translate(-829.502 -8377.459)" fill="none" stroke="#694bf5" stroke-width="3"/>
  </g>
</svg>
