<svg id="Component_11_1" data-name="Component 11 – 1" xmlns="http://www.w3.org/2000/svg" width="73.206" height="51.705" viewBox="0 0 73.206 51.705">
  <path id="Path_434" data-name="Path 434" d="M73.205.182h-12.3V.148H47.339l0,0L37.476,12.8V0H23.911l0,0L13.567,13.276V.108H0V19.732H8.538l-.02.026h0V37.173H22.081v-.005l0,.005,9.858-12.654v12.8H45.509v-.005l0,.005L60.9,17.564h0v-.011h12.3Z" transform="translate(0.001 0)" fill="#fff"/>
  <g id="Group_266" data-name="Group 266" transform="translate(0 40.153)">
    <path id="Path_388" data-name="Path 388" d="M862.416,41.639a.562.562,0,0,1-.411-.166.578.578,0,0,1,0-.813.6.6,0,0,1,.825,0,.577.577,0,0,1,0,.813.566.566,0,0,1-.414.166" transform="translate(-804.407 -37.334)" fill="#fff"/>
    <path id="Path_389" data-name="Path 389" d="M884.473,16.4a1.935,1.935,0,0,1-.615-.1,1.363,1.363,0,0,1-.491-.269l.229-.437a1.086,1.086,0,0,0,.393.229,1.385,1.385,0,0,0,.467.089.53.53,0,0,0,.305-.08.238.238,0,0,0,.117-.2.19.19,0,0,0-.061-.142.408.408,0,0,0-.16-.09q-.1-.032-.226-.066t-.261-.064a1.317,1.317,0,0,1-.261-.087,1.165,1.165,0,0,1-.226-.132.537.537,0,0,1-.16-.2.693.693,0,0,1-.061-.3.709.709,0,0,1,.276-.577,1.1,1.1,0,0,1,.713-.224,1.8,1.8,0,0,1,.533.079,1.094,1.094,0,0,1,.421.229l-.229.447a1.026,1.026,0,0,0-.373-.2,1.381,1.381,0,0,0-.408-.072.418.418,0,0,0-.257.072.233.233,0,0,0-.1.2.178.178,0,0,0,.079.146.648.648,0,0,0,.2.1q.126.038.278.075a2.531,2.531,0,0,1,.3.094,1.511,1.511,0,0,1,.277.137.6.6,0,0,1,.2.224.685.685,0,0,1,.079.334.7.7,0,0,1-.28.568,1.1,1.1,0,0,1-.715.225" transform="translate(-823.667 -12.168)" fill="#fff"/>
    <path id="Path_390" data-name="Path 390" d="M919.918,13.744a1.137,1.137,0,0,1,.868.384,1.425,1.425,0,0,1,0,1.882,1.137,1.137,0,0,1-.868.384,1.1,1.1,0,0,1-.483-.111A.741.741,0,0,1,919.1,16v1.238h-.577V13.8h.577v.338a.761.761,0,0,1,.332-.28,1.089,1.089,0,0,1,.482-.112m-.12,2.1a.773.773,0,1,0,0-1.546.822.822,0,0,0-.407.108.726.726,0,0,0-.287.273v.781a.71.71,0,0,0,.286.277.828.828,0,0,0,.408.107" transform="translate(-856.384 -12.169)" fill="#fff"/>
    <path id="Path_391" data-name="Path 391" d="M962.736,13.8h.58v2.545h-.58V16a.743.743,0,0,1-.329.284,1.089,1.089,0,0,1-.482.111,1.137,1.137,0,0,1-.868-.384,1.425,1.425,0,0,1,0-1.882,1.137,1.137,0,0,1,.868-.384,1.081,1.081,0,0,1,.481.112.751.751,0,0,1,.331.285Zm-.692,2.044a.823.823,0,0,0,.406-.107.723.723,0,0,0,.286-.272v-.781a.721.721,0,0,0-.285-.278.812.812,0,0,0-.407-.108.773.773,0,1,0,0,1.546" transform="translate(-895.629 -12.169)" fill="#fff"/>
    <path id="Path_392" data-name="Path 392" d="M1005.906,15.7a1.131,1.131,0,0,1-.46.507,1.356,1.356,0,0,1-.712.189,1.3,1.3,0,0,1-.95-.379,1.274,1.274,0,0,1-.383-.943,1.348,1.348,0,0,1,.173-.676,1.248,1.248,0,0,1,.478-.478,1.35,1.35,0,0,1,.677-.173,1.31,1.31,0,0,1,.662.168,1.064,1.064,0,0,1,.436.453l-.491.275a.585.585,0,0,0-.24-.247.732.732,0,0,0-.367-.092.724.724,0,0,0-.54.22.756.756,0,0,0-.215.551.745.745,0,0,0,.217.545.732.732,0,0,0,.543.22.783.783,0,0,0,.4-.1.633.633,0,0,0,.259-.275Z" transform="translate(-935.361 -12.169)" fill="#fff"/>
    <path id="Path_393" data-name="Path 393" d="M1043.779,14.956a1.337,1.337,0,0,1-.02.252h-1.938a.781.781,0,0,0,.248.486.74.74,0,0,0,.507.175.9.9,0,0,0,.4-.088.621.621,0,0,0,.27-.235l.463.3a.972.972,0,0,1-.444.406,1.576,1.576,0,0,1-.7.146,1.312,1.312,0,0,1-.666-.174,1.282,1.282,0,0,1-.479-.482,1.343,1.343,0,0,1-.177-.681,1.305,1.305,0,0,1,.174-.665,1.272,1.272,0,0,1,.476-.474,1.308,1.308,0,0,1,.662-.173,1.228,1.228,0,0,1,.619.16,1.176,1.176,0,0,1,.443.439,1.2,1.2,0,0,1,.162.614m-1.938-.193h1.328a.56.56,0,0,0-.2-.39.726.726,0,0,0-.877-.008.742.742,0,0,0-.247.4" transform="translate(-970.574 -12.168)" fill="#fff"/>
    <path id="Path_394" data-name="Path 394" d="M319.155,55.237l-2.808-7.766h1.885l1.637,5.035,1.815-5.035h1.427l1.831,5.035,1.629-5.035h1.893l-2.808,7.766h-1.42L322.4,50.2l-1.846,5.035Z" transform="translate(-316.346 -43.864)" fill="#fff"/>
    <path id="Path_395" data-name="Path 395" d="M436.912,49.6a4.072,4.072,0,0,1-.062.768h-5.912a2.383,2.383,0,0,0,.756,1.482,2.258,2.258,0,0,0,1.548.535,2.732,2.732,0,0,0,1.21-.268,1.893,1.893,0,0,0,.822-.718l1.412.9a2.96,2.96,0,0,1-1.354,1.237,4.806,4.806,0,0,1-2.122.446,4,4,0,0,1-2.033-.531,3.91,3.91,0,0,1-1.462-1.47,4.1,4.1,0,0,1-.539-2.079,3.982,3.982,0,0,1,.531-2.029,3.876,3.876,0,0,1,1.451-1.447,3.989,3.989,0,0,1,2.021-.528,3.748,3.748,0,0,1,1.889.489,3.588,3.588,0,0,1,1.35,1.338,3.667,3.667,0,0,1,.493,1.874M431,49.015h4.05a1.707,1.707,0,0,0-.621-1.191,2.216,2.216,0,0,0-2.677-.023A2.266,2.266,0,0,0,431,49.015" transform="translate(-417.458 -42.46)" fill="#fff"/>
    <path id="Path_396" data-name="Path 396" d="M514.431,18.326A3.469,3.469,0,0,1,517.08,19.5a4.348,4.348,0,0,1,0,5.741,3.469,3.469,0,0,1-2.649,1.171,3.345,3.345,0,0,1-1.474-.337,2.264,2.264,0,0,1-1.009-.865v1.047h-1.761V15.13h1.761v4.407a2.288,2.288,0,0,1,1.009-.869,3.314,3.314,0,0,1,1.474-.341m-.365,6.4a2.268,2.268,0,0,0,1.676-.679,2.3,2.3,0,0,0,.675-1.687,2.3,2.3,0,0,0-2.351-2.351,2.5,2.5,0,0,0-1.245.33,2.193,2.193,0,0,0-.873.849v2.382a2.2,2.2,0,0,0,.877.83,2.529,2.529,0,0,0,1.241.326" transform="translate(-490.054 -14.882)" fill="#fff"/>
    <path id="Path_397" data-name="Path 397" d="M585.79,55.237l-2.809-7.766h1.885l1.637,5.035,1.815-5.035h1.427l1.831,5.035,1.629-5.035H595.1l-2.808,7.766h-1.42L589.033,50.2l-1.846,5.035Z" transform="translate(-555.287 -43.864)" fill="#fff"/>
    <path id="Path_398" data-name="Path 398" d="M701,13.074a1.091,1.091,0,0,1,.8-.334,1.1,1.1,0,0,1,.8.334,1.075,1.075,0,0,1,.337.791,1.137,1.137,0,1,1-2.273,0,1.081,1.081,0,0,1,.333-.791m-.093,3.274h1.761v7.766h-1.761Z" transform="translate(-660.748 -12.74)" fill="#fff"/>
    <path id="Path_399" data-name="Path 399" d="M728.883,54.01a5.9,5.9,0,0,1-1.877-.31,4.167,4.167,0,0,1-1.5-.822l.7-1.334a3.314,3.314,0,0,0,1.2.7,4.221,4.221,0,0,0,1.424.272,1.616,1.616,0,0,0,.931-.245.726.726,0,0,0,.357-.617.579.579,0,0,0-.186-.434,1.242,1.242,0,0,0-.489-.275q-.3-.1-.69-.2t-.8-.194a4.034,4.034,0,0,1-.8-.264,3.556,3.556,0,0,1-.69-.4,1.637,1.637,0,0,1-.489-.625,2.109,2.109,0,0,1-.186-.908,2.165,2.165,0,0,1,.842-1.761,3.346,3.346,0,0,1,2.176-.683,5.487,5.487,0,0,1,1.625.241,3.348,3.348,0,0,1,1.284.7l-.7,1.365a3.133,3.133,0,0,0-1.137-.6,4.212,4.212,0,0,0-1.245-.221,1.274,1.274,0,0,0-.784.221.712.712,0,0,0-.295.6.543.543,0,0,0,.241.446,1.978,1.978,0,0,0,.624.3q.384.116.849.229a7.783,7.783,0,0,1,.927.287,4.6,4.6,0,0,1,.846.419,1.837,1.837,0,0,1,.625.683,2.09,2.09,0,0,1,.24,1.02,2.134,2.134,0,0,1-.853,1.734,3.367,3.367,0,0,1-2.18.687" transform="translate(-683.01 -42.459)" fill="#fff"/>
    <path id="Path_400" data-name="Path 400" d="M798.777,49.6a4.085,4.085,0,0,1-.062.768H792.8a2.382,2.382,0,0,0,.756,1.482,2.258,2.258,0,0,0,1.548.535,2.732,2.732,0,0,0,1.21-.268,1.892,1.892,0,0,0,.822-.718l1.412.9a2.961,2.961,0,0,1-1.354,1.237,4.806,4.806,0,0,1-2.122.446,4,4,0,0,1-2.033-.531,3.911,3.911,0,0,1-1.462-1.47,4.1,4.1,0,0,1-.539-2.079,3.982,3.982,0,0,1,.531-2.029,3.878,3.878,0,0,1,1.451-1.447,3.989,3.989,0,0,1,2.021-.528,3.747,3.747,0,0,1,1.889.489,3.589,3.589,0,0,1,1.35,1.338,3.668,3.668,0,0,1,.493,1.874m-5.912-.59h4.05a1.708,1.708,0,0,0-.621-1.191,2.216,2.216,0,0,0-2.677-.023,2.265,2.265,0,0,0-.752,1.214" transform="translate(-741.737 -42.46)" fill="#fff"/>
  </g>
</svg>
